<svg width="369" height="41" viewBox="0 0 369 41" fill="none" xmlns="http://www.w3.org/2000/svg">
<path d="M0 5.57065C0 2.49407 3.52204 0 7.86669 0H33.3547C37.6994 0 41.2214 2.49407 41.2214 5.57065V7.35326H0V5.57065Z" fill="#FBFDFF"/>
<path d="M0 33.8696H41.2214V35.4293C41.2214 38.5059 37.6994 41 33.3547 41H7.86669C3.52204 41 0 38.5059 0 35.4293V33.8696Z" fill="#FBFDFF"/>
<path d="M16.3627 11.1413H26.1174V30.0815H16.3627V11.1413Z" fill="#FBFDFF"/>
<path d="M31.1521 11.1413H41.2214V30.0815H31.1521V11.1413Z" fill="#FBFDFF"/>
<path d="M31.1521 7.35326H41.2214V10.25H31.1521V7.35326Z" fill="#FBFDFF"/>
<path d="M31.1521 30.9728H41.2214V33.8696H31.1521V30.9728Z" fill="#FBFDFF"/>
<path d="M0 7.35326H10.0694V33.8696H0V7.35326Z" fill="#FBFDFF"/>
<path d="M26.1174 16.2663H31.1521V24.9565H26.1174V16.2663Z" fill="#FBFDFF"/>
<path d="M68.026 30.2298C66.628 30.2298 65.3227 30.0204 64.11 29.6016C62.9141 29.166 61.8614 28.5461 60.9519 27.742C60.0592 26.9211 59.3602 25.9495 58.8549 24.827C58.3664 23.7046 58.1222 22.4733 58.1222 21.1331C58.1222 19.8264 58.3749 18.6285 58.8802 17.5396C59.4023 16.4339 60.1181 15.4707 61.0277 14.6498C61.9372 13.8289 62.9899 13.2007 64.1858 12.7651C65.3985 12.3295 66.7038 12.1118 68.1018 12.1118C69.0955 12.1118 70.064 12.2374 71.0072 12.4887C71.9673 12.7232 72.8347 13.0583 73.6095 13.4938C74.4011 13.9127 75.0665 14.3985 75.6054 14.9513L73.3316 17.7909C72.86 17.3721 72.3547 17.0035 71.8157 16.6852C71.2767 16.3502 70.6872 16.0905 70.0472 15.9062C69.4071 15.722 68.6997 15.6298 67.9249 15.6298C67.167 15.6298 66.4343 15.7638 65.7269 16.0319C65.0195 16.2832 64.3879 16.6434 63.8321 17.1124C63.2762 17.5815 62.8299 18.1595 62.493 18.8463C62.1562 19.5332 61.9877 20.3038 61.9877 21.1582C61.9877 22.0293 62.1562 22.8167 62.493 23.5203C62.8299 24.2072 63.2931 24.7935 63.8826 25.2794C64.4889 25.7484 65.1711 26.1086 65.929 26.3599C66.7038 26.5944 67.5207 26.7117 68.3797 26.7117C69.1713 26.7117 69.8872 26.6112 70.5272 26.4102C71.1673 26.1924 71.7483 25.9243 72.2705 25.606C72.7926 25.271 73.2558 24.9359 73.66 24.6009L75.4791 27.5661C75.0243 27.9849 74.4096 28.4037 73.6348 28.8226C72.8768 29.2246 72.0094 29.5597 71.0325 29.8277C70.0724 30.0958 69.0703 30.2298 68.026 30.2298Z" fill="#FBFDFF"/>
<path d="M89.7132 30.2298C88.3152 30.2298 87.0099 30.0204 85.7972 29.6016C84.6013 29.166 83.5486 28.5461 82.6391 27.742C81.7464 26.9211 81.0474 25.9495 80.5421 24.827C80.0537 23.7046 79.8094 22.4733 79.8094 21.1331C79.8094 19.8264 80.0621 18.6285 80.5674 17.5396C81.0895 16.4339 81.8054 15.4707 82.7149 14.6498C83.6244 13.8289 84.6771 13.2007 85.873 12.7651C87.0857 12.3295 88.391 12.1118 89.789 12.1118C90.7828 12.1118 91.7512 12.2374 92.6945 12.4887C93.6545 12.7232 94.5219 13.0583 95.2967 13.4938C96.0884 13.9127 96.7537 14.3985 97.2926 14.9513L95.0188 17.7909C94.5472 17.3721 94.0419 17.0035 93.5029 16.6852C92.964 16.3502 92.3744 16.0905 91.7344 15.9062C91.0944 15.722 90.387 15.6298 89.6122 15.6298C88.8542 15.6298 88.1215 15.7638 87.4141 16.0319C86.7067 16.2832 86.0751 16.6434 85.5193 17.1124C84.9634 17.5815 84.5171 18.1595 84.1802 18.8463C83.8434 19.5332 83.6749 20.3038 83.6749 21.1582C83.6749 22.0293 83.8434 22.8167 84.1802 23.5203C84.5171 24.2072 84.9803 24.7935 85.5698 25.2794C86.1762 25.7484 86.8583 26.1086 87.6162 26.3599C88.391 26.5944 89.2079 26.7117 90.0669 26.7117C90.8586 26.7117 91.5744 26.6112 92.2144 26.4102C92.8545 26.1924 93.4356 25.9243 93.9577 25.606C94.4798 25.271 94.943 24.9359 95.3473 24.6009L97.1663 27.5661C96.7116 27.9849 96.0968 28.4037 95.322 28.8226C94.5641 29.2246 93.6966 29.5597 92.7197 29.8277C91.7597 30.0958 90.7575 30.2298 89.7132 30.2298Z" fill="#FBFDFF"/>
<path d="M115.822 29.9785V12.3882H119.611V29.9785H115.822ZM102.709 29.9785V12.3882H106.499V29.9785H102.709ZM104.225 22.9675L104.276 19.5499H117.767V22.9675H104.225Z" fill="#FBFDFF"/>
<path d="M137.276 29.9785V26.6363H141.218V15.7303H137.276V12.3882H148.949V15.7303H145.007V26.6363H148.949V29.9785H137.276Z" fill="#FBFDFF"/>
<path d="M155.978 29.9785V12.3882H159.515L171.263 25.5307H170.707C170.623 24.9611 170.555 24.4082 170.505 23.8721C170.454 23.3361 170.404 22.8 170.353 22.2639C170.319 21.711 170.286 21.1666 170.252 20.6305C170.235 20.0777 170.218 19.5248 170.202 18.972C170.202 18.4024 170.202 17.8077 170.202 17.1878V12.3882H173.915V29.9785H170.328L158.378 16.7104L159.186 16.7355C159.237 17.2548 159.287 17.749 159.338 18.2181C159.405 18.6872 159.456 19.1395 159.489 19.5751C159.523 20.0106 159.557 20.4462 159.59 20.8818C159.624 21.3006 159.649 21.7445 159.666 22.2136C159.683 22.6659 159.691 23.1434 159.691 23.646V29.9785H155.978Z" fill="#FBFDFF"/>
<path d="M186.304 29.9785L178.648 12.3882H182.665L186.632 21.8116C186.767 22.1634 186.918 22.5487 187.087 22.9675C187.272 23.3863 187.457 23.8219 187.643 24.2742C187.828 24.7265 188.005 25.1788 188.173 25.6312C188.342 26.0835 188.493 26.5358 188.628 26.9881L187.819 27.0133C187.988 26.4437 188.182 25.8741 188.4 25.3045C188.636 24.7181 188.872 24.1402 189.108 23.5706C189.344 22.9842 189.571 22.4063 189.79 21.8367L193.529 12.3882H197.546L189.967 29.9785H186.304Z" fill="#FBFDFF"/>
<path d="M202.263 29.9785V12.3882H216.184V15.7052H205.952V26.6615H216.361V29.9785H202.263ZM204.183 22.6157V19.3992H214.971V22.6157H204.183Z" fill="#FBFDFF"/>
<path d="M229.565 30.2298C228.318 30.2298 227.173 30.1041 226.129 29.8528C225.085 29.5848 224.141 29.2079 223.299 28.722C222.457 28.2362 221.708 27.6499 221.051 26.963L223.122 24.0732C224.217 25.1621 225.312 25.9243 226.407 26.3599C227.502 26.7955 228.63 27.0133 229.792 27.0133C230.382 27.0133 230.954 26.9379 231.51 26.7871C232.083 26.6363 232.546 26.4185 232.9 26.1338C233.27 25.8322 233.456 25.4469 233.456 24.9778C233.456 24.6763 233.363 24.4166 233.178 24.1988C232.992 23.981 232.748 23.7968 232.445 23.646C232.142 23.4952 231.788 23.3696 231.384 23.269C230.98 23.1518 230.55 23.0596 230.095 22.9926C229.658 22.9089 229.203 22.8418 228.731 22.7916C227.67 22.6241 226.718 22.3979 225.876 22.1131C225.051 21.8283 224.343 21.4681 223.754 21.0326C223.164 20.5802 222.718 20.0609 222.415 19.4746C222.129 18.8715 221.985 18.1846 221.985 17.414C221.985 16.5931 222.179 15.8476 222.567 15.1775C222.954 14.5074 223.493 13.9378 224.183 13.4687C224.874 12.9996 225.674 12.6478 226.584 12.4133C227.51 12.162 228.504 12.0364 229.565 12.0364C230.727 12.0364 231.763 12.1536 232.672 12.3882C233.582 12.6227 234.39 12.9578 235.098 13.3933C235.805 13.8121 236.386 14.3147 236.841 14.9011L234.668 17.3888C234.247 16.9533 233.75 16.5763 233.178 16.258C232.622 15.9397 232.032 15.6968 231.409 15.5293C230.786 15.3618 230.154 15.278 229.514 15.278C228.807 15.278 228.184 15.3534 227.645 15.5042C227.123 15.6382 226.702 15.8476 226.382 16.1324C226.078 16.4004 225.927 16.7439 225.927 17.1627C225.927 17.4977 226.045 17.7909 226.28 18.0422C226.516 18.2935 226.828 18.5029 227.215 18.6704C227.603 18.8212 228.049 18.9552 228.554 19.0725C229.06 19.173 229.59 19.2652 230.146 19.3489C231.123 19.4997 232.049 19.6923 232.925 19.9269C233.801 20.1447 234.576 20.4462 235.249 20.8315C235.923 21.2001 236.445 21.6859 236.816 22.289C237.186 22.8754 237.372 23.6125 237.372 24.5004C237.372 25.6898 237.035 26.7117 236.361 27.5661C235.704 28.4205 234.795 29.0822 233.632 29.5513C232.47 30.0036 231.114 30.2298 229.565 30.2298Z" fill="#FBFDFF"/>
<path d="M247.444 29.9785V15.7806H241.279V12.3882H257.524V15.7806H251.234V29.9785H247.444Z" fill="#FBFDFF"/>
<path d="M262.761 29.9785V12.3882H266.222L273.574 22.5403L271.477 22.5152L278.854 12.3882H282.265V29.9785H278.551V23.7968C278.551 22.356 278.585 21.0326 278.652 19.8264C278.719 18.6034 278.854 17.3721 279.056 16.1324L279.461 17.3888L273.321 25.4553H271.654L265.54 17.3637L265.969 16.1324C266.171 17.3386 266.306 18.5448 266.373 19.751C266.441 20.9572 266.474 22.3058 266.474 23.7968V29.9785H262.761Z" fill="#FBFDFF"/>
<path d="M289.234 29.9785V12.3882H303.155V15.7052H292.923V26.6615H303.332V29.9785H289.234ZM291.154 22.6157V19.3992H301.942V22.6157H291.154Z" fill="#FBFDFF"/>
<path d="M309.639 29.9785V12.3882H313.176L324.924 25.5307H324.368C324.284 24.9611 324.216 24.4082 324.166 23.8721C324.115 23.3361 324.065 22.8 324.014 22.2639C323.98 21.711 323.947 21.1666 323.913 20.6305C323.896 20.0777 323.879 19.5248 323.863 18.972C323.863 18.4024 323.863 17.8077 323.863 17.1878V12.3882H327.576V29.9785H323.989L312.039 16.7104L312.847 16.7355C312.898 17.2548 312.948 17.749 312.999 18.2181C313.066 18.6872 313.117 19.1395 313.15 19.5751C313.184 20.0106 313.218 20.4462 313.251 20.8818C313.285 21.3006 313.31 21.7445 313.327 22.2136C313.344 22.6659 313.352 23.1434 313.352 23.646V29.9785H309.639Z" fill="#FBFDFF"/>
<path d="M338.979 29.9785V15.7806H332.815V12.3882H349.06V15.7806H342.769V29.9785H338.979Z" fill="#FBFDFF"/>
<path d="M361.193 30.2298C359.947 30.2298 358.801 30.1041 357.757 29.8528C356.713 29.5848 355.77 29.2079 354.928 28.722C354.085 28.2362 353.336 27.6499 352.679 26.963L354.751 24.0732C355.846 25.1621 356.94 25.9243 358.035 26.3599C359.13 26.7955 360.258 27.0133 361.421 27.0133C362.01 27.0133 362.583 26.9379 363.139 26.7871C363.711 26.6363 364.174 26.4185 364.528 26.1338C364.899 25.8322 365.084 25.4469 365.084 24.9778C365.084 24.6763 364.991 24.4166 364.806 24.1988C364.621 23.981 364.377 23.7968 364.073 23.646C363.77 23.4952 363.417 23.3696 363.012 23.269C362.608 23.1518 362.179 23.0596 361.724 22.9926C361.286 22.9089 360.831 22.8418 360.359 22.7916C359.298 22.6241 358.347 22.3979 357.505 22.1131C356.679 21.8283 355.972 21.4681 355.382 21.0326C354.793 20.5802 354.346 20.0609 354.043 19.4746C353.757 18.8715 353.614 18.1846 353.614 17.414C353.614 16.5931 353.807 15.8476 354.195 15.1775C354.582 14.5074 355.121 13.9378 355.812 13.4687C356.502 12.9996 357.302 12.6478 358.212 12.4133C359.138 12.162 360.132 12.0364 361.193 12.0364C362.355 12.0364 363.391 12.1536 364.301 12.3882C365.21 12.6227 366.019 12.9578 366.726 13.3933C367.434 13.8121 368.015 14.3147 368.469 14.9011L366.297 17.3888C365.876 16.9533 365.379 16.5763 364.806 16.258C364.25 15.9397 363.661 15.6968 363.038 15.5293C362.414 15.3618 361.783 15.278 361.143 15.278C360.435 15.278 359.812 15.3534 359.273 15.5042C358.751 15.6382 358.33 15.8476 358.01 16.1324C357.707 16.4004 357.555 16.7439 357.555 17.1627C357.555 17.4977 357.673 17.7909 357.909 18.0422C358.145 18.2935 358.456 18.5029 358.844 18.6704C359.231 18.8212 359.677 18.9552 360.183 19.0725C360.688 19.173 361.218 19.2652 361.774 19.3489C362.751 19.4997 363.678 19.6923 364.553 19.9269C365.429 20.1447 366.204 20.4462 366.878 20.8315C367.552 21.2001 368.074 21.6859 368.444 22.289C368.815 22.8754 369 23.6125 369 24.5004C369 25.6898 368.663 26.7117 367.989 27.5661C367.333 28.4205 366.423 29.0822 365.261 29.5513C364.099 30.0036 362.743 30.2298 361.193 30.2298Z" fill="#FBFDFF"/>
</svg>
