<svg width="64" height="57" viewBox="0 0 64 57" fill="none" xmlns="http://www.w3.org/2000/svg">
<g clip-path="url(#clip0_306_21)">
<path d="M15.7749 10.2422H25.2397V47.2031H15.7749V10.2422Z" fill="#0C2438"/>
<path d="M40.5498 34.6963H48.3666V41.8213H40.5498V34.6963Z" fill="#0C2438"/>
<path d="M40.5498 15.4893H48.3666V22.6142H40.5498V15.4893Z" fill="#0C2438"/>
<path d="M17.0996 41.8213H48.3667V47.0875H17.0996V41.8213Z" fill="#0C2438"/>
<path d="M17.0996 10.2227H48.3667V15.4889H17.0996V10.2227Z" fill="#0C2438"/>
<path d="M25.4048 15.4893H40.5496V41.8208H25.4048V15.4893Z" fill="white"/>
<path d="M48.3662 15.4893H63.9999V41.8208H48.3662V15.4893Z" fill="white"/>
<path d="M0 7.74457C0 3.46737 5.46827 0 12.2137 0H51.7864C58.5318 0 64 3.46737 64 7.74457V10.2228H0V7.74457Z" fill="white"/>
<path d="M0 47.0869H64V49.2555C64 53.5326 58.5318 57 51.7864 57H12.2137C5.46827 57 0 53.5326 0 49.2555V47.0869Z" fill="white"/>
<path d="M48.3662 10.2227H63.9999V14.2498H48.3662V10.2227Z" fill="white"/>
<path d="M48.3662 43.0596H63.9999V47.0867H48.3662V43.0596Z" fill="white"/>
<path d="M0 10.2227H15.6336V47.0867H0V10.2227Z" fill="white"/>
<path d="M40.5493 22.6143H48.3661V34.6959H40.5493V22.6143Z" fill="white"/>
</g>
<defs>
<clipPath id="clip0_306_21">
<rect width="64" height="57" fill="white"/>
</clipPath>
</defs>
</svg>
