<svg width="229" height="229" viewBox="0 0 229 229" fill="none" xmlns="http://www.w3.org/2000/svg">
<path d="M114.5 34.8496C158.489 34.8498 194.149 70.5106 194.149 114.5C194.149 158.489 158.489 194.149 114.5 194.149C70.5106 194.149 34.8498 158.489 34.8496 114.5C34.8496 70.5105 70.5105 34.8496 114.5 34.8496Z" stroke="white"/>
<path d="M36.3535 114.5L192.646 114.5" stroke="white"/>
<path d="M114.5 34.8496C125.275 34.8497 135.164 43.5978 142.39 58.0488C149.6 72.4701 154.075 92.428 154.075 114.5C154.075 136.572 149.6 156.529 142.39 170.95C135.164 185.401 125.275 194.149 114.5 194.149C103.725 194.149 93.8349 185.401 86.6094 170.95C79.3989 156.529 74.9249 136.572 74.9248 114.5C74.9248 92.4281 79.3988 72.47 86.6094 58.0488C93.8349 43.5977 103.725 34.8496 114.5 34.8496Z" stroke="white"/>
<path d="M114.5 36.3535L114.5 192.646" stroke="white"/>
</svg>
